<?xml version="1.0" standalone="no"?>
<!DOCTYPE svg PUBLIC "-//W3C//DTD SVG 20010904//EN"
 "http://www.w3.org/TR/2001/REC-SVG-20010904/DTD/svg10.dtd">
<svg version="1.0" xmlns="http://www.w3.org/2000/svg"
 width="256.000000pt" height="256.000000pt" viewBox="0 0 256.000000 256.000000"
 preserveAspectRatio="xMidYMid meet">
<metadata>
Created by potrace 1.14, written by Peter Selinger 2001-2017
</metadata>
<g transform="translate(0.000000,256.000000) scale(0.100000,-0.100000)"
fill="#000000" stroke="none">
<path d="M1358 2333 c7 -3 16 -2 19 1 4 3 -2 6 -13 5 -11 0 -14 -3 -6 -6z"/>
<path d="M1488 2295 c57 -19 109 -32 114 -29 6 4 8 3 5 -3 -7 -12 40 -36 54
-28 5 4 9 2 9 -4 0 -6 10 -15 21 -22 15 -7 19 -8 15 0 -5 7 -1 9 8 5 9 -3 13
-11 9 -17 -3 -5 -1 -7 4 -4 15 9 115 -59 198 -135 69 -62 69 -62 31 -15 -34
42 -127 123 -206 180 l-25 18 25 -12 c44 -21 112 -71 195 -143 79 -69 79 -63
0 23 l-40 45 55 -44 55 -44 -50 53 c-76 80 -177 144 -298 189 -67 25 -90 28
-63 7 25 -19 7 -19 -55 -1 -25 8 -72 14 -105 15 l-59 0 103 -34z m232 -51 c0
-2 -13 2 -30 11 -16 9 -30 18 -30 21 0 2 14 -2 30 -11 17 -9 30 -18 30 -21z"/>
<path d="M1100 2266 c0 -2 7 -7 16 -10 8 -3 12 -2 9 4 -6 10 -25 14 -25 6z"/>
<path d="M833 2253 c-40 -2 -73 -8 -73 -13 0 -6 -7 -10 -15 -10 -20 0 -19 -17
2 -29 15 -8 10 -13 -31 -31 -64 -27 -53 -36 19 -16 45 14 67 15 111 7 35 -7
63 -7 80 -1 14 6 36 10 50 10 17 0 24 5 24 20 0 16 -5 19 -22 15 -14 -3 -33 3
-48 15 l-25 20 31 0 c17 0 34 -3 38 -7 7 -8 124 -8 132 0 3 2 -9 10 -27 16
-30 10 -84 11 -246 4z m64 -29 c-3 -3 -12 -4 -19 -1 -8 3 -5 6 6 6 11 1 17 -2
13 -5z"/>
<path d="M1320 2252 c0 -5 -13 -7 -29 -4 -16 2 -32 -1 -35 -7 -4 -6 -1 -11 6
-12 7 -1 2 -4 -12 -8 l-25 -7 34 -18 c43 -23 91 -37 91 -27 0 15 -23 29 -39
24 -12 -4 -13 -3 -3 5 8 5 14 13 15 18 2 10 28 6 42 -7 5 -6 4 -9 -4 -9 -7 0
-9 -5 -6 -11 4 -6 20 -9 35 -7 16 1 36 -5 47 -14 31 -29 92 -50 111 -39 12 7
26 2 54 -22 54 -45 143 -119 165 -137 10 -8 14 -12 9 -7 -20 14 -29 7 -13 -11
10 -10 17 -21 17 -24 0 -3 20 -36 45 -74 25 -37 45 -75 45 -83 0 -21 23 -81
31 -81 3 0 10 -24 13 -52 4 -29 14 -78 23 -108 15 -53 14 -154 -4 -234 -4 -19
-2 -27 5 -22 5 3 18 42 28 85 15 66 20 77 30 63 10 -13 15 -1 32 69 11 46 21
73 22 59 1 -14 7 -79 14 -145 12 -107 11 -124 -3 -155 -17 -37 -19 -64 -7 -92
16 -36 -16 -89 -108 -182 -71 -71 -109 -100 -168 -129 -42 -21 -93 -41 -112
-44 -51 -8 -45 -22 7 -16 60 8 170 60 265 127 45 31 84 56 87 54 9 -5 59 33
84 65 l25 29 -23 -7 c-34 -11 -22 15 20 43 18 13 51 39 71 58 36 33 38 37 34
88 -2 29 -8 62 -14 73 -6 11 -12 39 -14 62 -1 24 -8 45 -15 48 -8 3 -10 15 -6
34 3 17 0 35 -7 44 -17 21 -30 19 -30 -6 0 -42 -17 -7 -24 47 -9 75 -41 148
-61 140 -10 -4 -15 1 -15 15 0 11 -5 30 -11 41 -23 42 -102 143 -110 140 -5
-1 -8 1 -7 5 3 17 -26 63 -44 68 -10 4 -18 11 -18 16 0 14 -28 11 -33 -3 -4
-10 -8 -10 -16 2 -12 17 -4 33 14 26 37 -14 -29 80 -73 103 -28 15 -42 7 -42
-25 0 -25 0 -25 -24 -7 -14 10 -29 28 -35 41 -6 12 -19 22 -30 22 -11 0 -22 4
-26 10 -3 5 -33 17 -66 26 -40 11 -56 20 -47 25 8 6 -5 9 -33 9 -30 0 -51 6
-60 16 -16 20 -69 47 -69 36z m619 -612 c0 -10 -3 -8 -9 5 -12 27 -12 43 0 25
5 -8 9 -22 9 -30z"/>
<path d="M1020 2199 c0 -5 9 -9 20 -9 11 0 20 2 20 4 0 2 -9 6 -20 9 -11 3
-20 1 -20 -4z"/>
<path d="M1074 2191 c4 -6 11 -11 16 -11 5 0 26 -12 47 -26 21 -14 45 -23 55
-21 10 3 20 1 23 -3 3 -5 31 -11 63 -15 99 -10 194 -47 285 -109 20 -14 37
-21 37 -16 0 5 -12 17 -27 27 -16 9 -38 26 -51 37 -13 12 -24 20 -25 18 -1 -2
-15 2 -32 8 -16 7 -66 23 -110 37 -44 13 -90 29 -101 35 -12 6 -35 11 -50 13
-16 1 -42 8 -57 14 -50 20 -81 25 -73 12z"/>
<path d="M595 2110 c-3 -6 1 -7 9 -4 18 7 21 14 7 14 -6 0 -13 -4 -16 -10z"/>
<path d="M516 2075 c-85 -51 -145 -98 -196 -151 -39 -42 -41 -45 -10 -21 119
93 222 168 244 178 14 7 26 16 26 21 0 12 0 11 -64 -27z"/>
<path d="M1125 2010 c-8 -13 75 -24 88 -11 6 6 7 11 2 12 -6 0 -27 2 -47 4
-21 2 -40 0 -43 -5z"/>
<path d="M1010 2000 c0 -5 7 -7 15 -4 8 4 15 8 15 10 0 2 -7 4 -15 4 -8 0 -15
-4 -15 -10z"/>
<path d="M1255 2000 c11 -5 29 -8 40 -8 16 0 15 2 -5 8 -34 11 -60 11 -35 0z"/>
<path d="M940 1990 l-25 -8 27 -1 c15 -1 30 4 33 9 7 11 0 11 -35 0z"/>
<path d="M1620 1973 c0 -13 150 -146 150 -133 0 6 -24 35 -53 64 -52 52 -97
84 -97 69z"/>
<path d="M1365 1881 c-2 -5 -20 -12 -40 -15 -67 -13 -56 -39 21 -50 24 -3 62
-15 85 -27 23 -11 43 -18 46 -15 3 3 20 -2 37 -11 17 -10 34 -17 38 -18 8 0
41 -43 58 -75 10 -18 -1 -12 -40 22 -30 26 -57 45 -61 42 -4 -2 -10 0 -14 6
-3 5 -17 10 -31 10 -14 0 -70 12 -125 26 -54 14 -103 23 -107 20 -5 -3 -16 4
-26 16 -16 18 -26 20 -80 16 -123 -10 -268 -76 -329 -149 -141 -172 -163 -209
-145 -238 10 -17 9 -24 -10 -44 -22 -23 -43 -117 -26 -117 5 0 7 -28 6 -61 -3
-53 -2 -61 12 -56 11 5 16 1 16 -13 0 -11 4 -28 9 -38 15 -27 38 -85 46 -112
9 -32 82 -169 103 -192 24 -29 7 -21 -29 13 -19 17 -43 49 -54 72 -26 53 -50
63 -40 16 3 -19 9 -43 12 -54 10 -38 -41 36 -78 113 -30 63 -37 71 -48 58 -7
-9 -13 -44 -14 -83 0 -56 4 -77 26 -118 15 -27 27 -54 27 -58 0 -5 25 -45 56
-89 45 -64 72 -89 132 -129 44 -28 87 -49 103 -49 15 0 47 -8 71 -18 94 -40
223 -56 301 -39 38 9 58 7 101 -6 68 -22 125 -22 156 0 34 24 273 30 243 7
-16 -13 -11 -14 46 -8 46 4 62 3 57 -5 -9 -14 -7 -14 33 0 17 6 31 15 31 21 0
5 4 7 9 4 11 -7 84 28 100 48 14 17 7 36 -14 36 -7 0 -42 -13 -77 -30 -70 -33
-101 -38 -92 -15 4 8 1 15 -5 15 -6 0 -11 7 -11 15 0 8 4 15 9 15 6 0 22 11
36 25 l27 24 -29 6 c-48 11 -49 13 -9 14 94 2 162 45 145 90 -7 19 -12 22 -21
13 -7 -7 -18 -12 -25 -12 -29 0 -9 35 65 111 91 95 112 125 112 159 0 14 16
59 35 100 18 41 32 76 30 78 -5 5 -49 -46 -82 -96 -57 -86 -154 -171 -258
-226 -33 -17 -43 -26 -30 -27 57 -3 -234 -57 -305 -57 -52 0 -228 22 -277 34
-38 10 -18 -21 25 -39 57 -24 82 -30 82 -18 0 16 21 13 34 -4 6 -9 34 -18 66
-21 64 -6 79 -14 27 -14 -57 0 -46 -29 18 -51 22 -7 46 -18 53 -25 35 -30
-335 22 -430 61 -11 4 -18 3 -18 -4 0 -8 -11 -6 -30 6 -16 9 -30 21 -30 25 0
5 -24 23 -52 42 -61 39 -157 137 -182 183 -18 36 -21 56 -5 33 9 -12 9 -11 4
5 -4 11 -10 28 -12 38 -3 9 -9 17 -15 17 -5 0 -18 16 -29 35 -12 19 -24 33
-29 30 -8 -5 -25 102 -23 145 3 58 13 118 26 155 8 22 12 46 9 54 -2 8 0 11 6
8 13 -9 28 11 36 48 6 28 10 31 40 27 l34 -4 -15 -35 c-21 -52 -24 -90 -12
-171 18 -125 61 -195 206 -336 66 -64 114 -98 165 -117 l53 -20 -30 26 -30 25
29 -6 c23 -5 32 -2 45 15 13 17 29 23 72 26 73 4 71 4 64 16 -4 6 2 13 14 16
11 3 19 9 16 12 -2 4 20 15 49 24 37 12 55 24 59 37 4 16 11 19 35 14 16 -3
32 -1 36 4 4 6 -3 8 -16 5 -22 -5 -22 -5 -6 12 13 14 14 22 5 42 -9 21 -6 29
36 71 25 26 53 67 62 92 44 120 44 121 30 226 -8 54 -17 114 -21 133 -5 25 -4
32 4 27 8 -5 10 -2 6 8 -3 9 -11 13 -17 9 -6 -4 -8 0 -4 11 4 10 3 15 -3 11
-5 -3 -15 5 -22 19 -13 31 -33 35 -25 6 7 -29 2 -25 -22 15 -21 36 -10 49 19
23 7 -7 -1 6 -19 29 -34 45 -91 91 -91 74 0 -6 -16 -5 -41 4 -22 8 -50 14 -62
13 -12 0 -34 4 -49 10 -15 6 -30 7 -33 3z m151 -92 c3 -6 -5 -3 -20 6 -14 10
-26 19 -26 22 0 7 39 -17 46 -28z m-666 -103 c0 -2 -7 -7 -16 -10 -8 -3 -12
-2 -9 4 6 10 25 14 25 6z m1110 -846 c-40 -32 -45 -35 -60 -38 -18 -3 27 35
55 48 31 14 32 11 5 -10z m-282 -119 c20 -12 -49 -21 -95 -13 -38 7 -38 7 17
13 30 3 57 6 60 7 3 1 11 -2 18 -7z m7 -83 c-51 -14 -111 -20 -100 -9 6 5 30
12 54 15 24 3 46 8 49 11 3 2 10 1 15 -2 6 -4 -2 -10 -18 -15z"/>
<path d="M755 1854 c-22 -7 -49 -14 -61 -14 -18 0 -54 -27 -54 -41 0 -20 110
20 159 58 14 11 -10 9 -44 -3z"/>
<path d="M1819 1772 c6 -12 16 -24 22 -28 8 -4 8 -1 0 14 -6 12 -16 24 -22 28
-8 4 -8 1 0 -14z"/>
<path d="M582 1767 c-33 -8 -52 -21 -80 -56 -20 -25 -44 -53 -53 -61 -30 -30
-49 -65 -49 -94 0 -16 -7 -37 -15 -46 -23 -25 -47 -160 -58 -327 -2 -39 -10
-42 -24 -10 -9 19 -12 20 -18 5 -4 -9 3 -37 14 -64 12 -25 21 -54 21 -63 0 -9
9 -31 20 -49 11 -18 20 -37 20 -42 0 -6 18 -49 40 -95 30 -64 45 -85 60 -85
19 0 19 2 -5 56 -14 31 -41 78 -60 104 -19 26 -35 50 -35 53 0 2 9 7 20 10 18
5 20 14 20 80 0 57 4 76 15 81 8 3 15 13 15 22 0 12 -6 15 -23 10 -22 -5 -23
-3 -21 62 3 155 19 202 89 264 20 17 20 17 -2 18 -13 0 -23 3 -23 6 0 20 27
47 70 68 43 22 132 96 115 96 -4 0 1 7 9 16 22 21 20 34 -5 34 -11 0 -17 5
-14 10 3 6 5 9 3 9 -2 -1 -22 -6 -46 -12z"/>
<path d="M1853 1718 c2 -7 10 -31 17 -53 23 -72 30 -83 24 -35 -6 44 -29 100
-40 100 -4 0 -4 -6 -1 -12z"/>
<path d="M1890 1554 c0 -14 4 -23 9 -20 5 3 7 15 4 26 -7 28 -13 25 -13 -6z"/>
<path d="M152 1483 c-23 -61 -32 -97 -32 -126 0 -36 7 -32 14 8 3 17 13 55 21
85 15 59 14 78 -3 33z"/>
<path d="M2367 1416 c-4 -15 -6 -31 -2 -34 10 -10 16 6 13 35 l-3 28 -8 -29z"/>
<path d="M1889 1410 c-2 -14 -10 -24 -17 -22 -6 1 -12 -6 -12 -15 0 -10 -16
-47 -35 -82 -32 -60 -37 -90 -13 -75 7 4 8 2 4 -4 -4 -7 -3 -12 3 -12 17 0 48
64 55 114 3 27 11 55 17 62 6 7 9 23 7 36 -4 23 -4 23 -9 -2z"/>
<path d="M2347 1278 c-19 -42 -22 -68 -7 -68 15 0 32 49 27 79 -3 25 -4 24
-20 -11z"/>
<path d="M1889 1237 c-8 -7 -32 -38 -53 -69 -20 -31 -55 -73 -77 -92 -45 -41
-43 -44 11 -16 42 22 123 116 139 162 11 30 5 34 -20 15z"/>
<path d="M1726 1108 c3 -5 10 -6 15 -3 13 9 11 12 -6 12 -8 0 -12 -4 -9 -9z"/>
<path d="M506 1033 c-7 -30 9 -73 27 -73 9 0 -1 66 -13 89 -5 10 -10 5 -14
-16z"/>
<path d="M256 985 c9 -78 52 -214 90 -281 32 -59 122 -169 131 -161 5 6 -31
70 -62 111 -37 50 -95 172 -131 280 -29 87 -33 94 -28 51z"/>
<path d="M1287 830 c13 -14 123 -42 123 -31 0 4 -21 13 -47 19 -27 6 -57 14
-68 18 -16 5 -18 4 -8 -6z"/>
<path d="M1452 821 c-13 -9 -20 -20 -16 -24 12 -11 96 -7 139 8 l40 14 -63 -2
c-39 -1 -65 2 -70 10 -5 8 -13 7 -30 -6z"/>
</g>
</svg>
