<?xml version="1.0" standalone="no"?>
<!DOCTYPE svg PUBLIC "-//W3C//DTD SVG 20010904//EN"
 "http://www.w3.org/TR/2001/REC-SVG-20010904/DTD/svg10.dtd">
<svg version="1.0" xmlns="http://www.w3.org/2000/svg"
 width="278.000000pt" height="278.000000pt" viewBox="0 0 278.000000 278.000000"
 preserveAspectRatio="xMidYMid meet">
<metadata>
Created by potrace 1.14, written by Peter Selinger 2001-2017
</metadata>
<g transform="translate(0.000000,278.000000) scale(0.100000,-0.100000)"
fill="#000000" stroke="none">
<path d="M1286 2644 c-36 -9 -54 -10 -73 -1 -18 8 -32 8 -57 -1 -18 -7 -40
-12 -50 -12 -10 0 -30 -8 -44 -19 -37 -26 -115 -51 -160 -51 -27 0 -47 -8 -72
-30 -19 -16 -39 -29 -43 -30 -27 -1 -427 -392 -427 -417 0 -5 -9 -19 -20 -30
-11 -12 -36 -57 -56 -100 -20 -43 -40 -80 -44 -83 -12 -9 -62 -100 -55 -100 4
0 3 -6 -3 -13 -7 -8 -9 -29 -5 -50 3 -20 2 -37 -3 -37 -12 0 -30 -45 -39 -94
-3 -21 -12 -48 -20 -60 -7 -12 -15 -49 -18 -83 -4 -57 -3 -64 19 -78 21 -13
22 -18 12 -43 -17 -42 -10 -133 13 -158 13 -13 19 -35 19 -65 1 -24 10 -69 21
-99 11 -30 21 -61 22 -67 2 -7 15 -26 30 -41 15 -15 27 -32 27 -36 0 -11 59
-94 92 -131 16 -16 28 -33 28 -37 0 -14 317 -328 331 -328 8 0 33 -18 57 -40
34 -33 49 -40 81 -40 22 0 43 -5 46 -10 4 -6 10 -8 15 -5 5 3 11 1 15 -5 3 -5
15 -10 25 -10 11 0 30 -11 44 -25 26 -26 50 -32 61 -15 4 7 12 7 25 0 10 -5
52 -10 94 -10 57 0 79 -4 91 -17 19 -18 91 -27 100 -12 4 5 16 9 28 9 13 0 31
6 42 13 12 8 44 13 80 12 68 -3 81 1 65 20 -15 19 6 30 24 13 21 -22 132 -11
190 18 16 7 33 14 38 14 15 0 143 63 146 72 2 4 9 8 16 8 7 0 21 9 30 19 14
16 23 18 45 10 24 -8 41 -2 129 48 56 32 102 63 102 68 0 6 6 22 14 37 8 15
12 37 9 48 -5 18 -2 20 20 15 40 -11 58 13 42 53 -12 26 -11 30 1 25 8 -3 15
0 15 6 1 6 2 14 3 19 2 10 48 75 62 87 25 20 106 187 96 197 -6 6 -18 -8 -33
-38 -24 -48 -49 -69 -49 -40 0 26 -26 7 -44 -32 -9 -20 -32 -55 -51 -77 -34
-39 -44 -65 -26 -65 5 0 11 7 15 15 7 19 36 20 36 0 0 -22 -77 -98 -94 -92 -8
3 -17 -1 -21 -10 -4 -12 -9 -13 -17 -5 -7 7 -17 8 -28 2 -21 -11 -80 -66 -80
-74 0 -16 -63 -66 -93 -74 -25 -7 -31 -14 -30 -31 2 -12 -4 -24 -12 -27 -8 -4
-15 -11 -15 -18 0 -6 -15 -10 -38 -10 -93 4 -91 2 -29 39 32 19 62 35 67 35 4
0 10 3 12 8 2 4 21 19 43 35 65 45 72 51 79 75 9 28 -7 29 -33 3 -11 -11 -35
-28 -53 -37 -18 -9 -60 -36 -93 -59 -84 -60 -140 -86 -152 -74 -11 11 -53 -8
-53 -23 0 -5 -6 -8 -13 -8 -8 0 -24 -12 -38 -27 -17 -19 -19 -24 -7 -20 9 3
34 9 55 13 21 4 50 13 65 21 27 13 28 13 17 -11 -8 -18 -23 -27 -51 -31 -21
-4 -53 -14 -71 -23 -94 -47 -446 -65 -567 -30 -36 11 -72 21 -80 23 -8 2 -44
13 -80 25 -36 13 -77 22 -92 21 -14 -1 -32 4 -40 11 -7 7 -20 14 -28 16 -8 2
-16 7 -18 11 -1 4 -16 5 -33 3 -28 -4 -30 -2 -24 17 4 14 2 21 -7 21 -8 0 -37
21 -65 48 -81 75 -116 101 -98 72 6 -9 1 -11 -37 -14 -8 -1 -12 9 -10 25 3 29
-18 52 -45 47 -24 -4 -32 41 -9 54 22 12 20 35 -4 48 -11 6 -38 34 -60 63 -22
29 -45 57 -50 64 -23 29 -109 211 -114 243 -3 19 -12 67 -20 105 -18 88 -23
224 -9 250 6 11 12 25 13 30 2 6 5 16 7 23 3 6 2 29 -1 50 -11 65 -8 99 14
156 5 15 8 26 5 26 -2 0 3 16 11 35 8 19 14 37 14 40 0 3 7 21 15 41 8 20 15
39 15 42 0 3 26 39 57 81 32 42 57 79 55 83 -1 4 10 11 26 14 15 4 37 16 50
27 29 27 29 13 -1 -17 -41 -44 -73 -86 -63 -86 3 0 45 39 94 88 48 48 101 96
117 107 16 11 47 37 69 57 23 21 46 38 52 38 5 0 19 8 30 18 10 10 26 21 34
25 8 4 38 20 65 36 28 16 70 39 94 50 32 15 41 25 34 32 -14 14 -140 -46 -249
-117 -13 -9 -24 -14 -24 -11 0 11 55 57 67 57 7 0 13 5 13 10 0 6 7 10 15 10
9 0 18 7 21 15 3 8 21 19 39 25 18 6 36 17 39 25 3 9 18 15 36 15 37 0 149 36
170 55 14 12 46 19 78 16 10 -1 10 -6 2 -21 -6 -11 -14 -19 -18 -16 -11 7 -72
-22 -72 -34 0 -13 25 -12 133 4 49 7 103 12 120 10 18 -1 52 -3 77 -4 89 -3
133 -13 154 -34 25 -25 42 -28 83 -15 33 11 103 -5 103 -23 0 -4 8 -8 18 -8 9
0 34 -11 54 -25 20 -14 43 -22 52 -19 8 3 25 -2 38 -10 14 -9 27 -14 30 -11 7
7 287 -270 314 -310 11 -16 30 -50 43 -75 12 -25 30 -51 38 -57 9 -7 17 -21
18 -30 1 -10 6 -27 12 -38 6 -11 13 -33 16 -50 3 -16 10 -46 16 -65 10 -33 19
-92 20 -132 1 -10 6 -18 12 -18 10 0 9 57 -5 165 -5 37 -24 107 -41 148 -6 14
-2 17 29 17 20 0 36 -5 36 -10 0 -7 7 -7 21 0 11 7 27 9 35 6 8 -3 14 -1 14 4
0 13 -59 120 -79 143 -9 10 -25 36 -36 57 -31 60 -61 95 -191 224 -131 131
-200 186 -233 186 -22 0 -126 45 -151 65 -8 7 -33 18 -55 25 -22 7 -46 17 -52
23 -7 5 -13 7 -13 3 0 -3 -12 -1 -26 4 -14 6 -65 13 -112 16 -104 6 -152 10
-212 18 -90 13 -106 13 -154 0z m877 -365 c69 -37 132 -101 168 -169 l37 -71
-109 108 c-130 127 -156 163 -96 132z m267 -316 c6 -7 13 -27 15 -45 3 -21 2
-26 -3 -13 -4 11 -17 40 -30 65 -13 25 -16 36 -8 25 9 -11 20 -26 26 -32z"/>
<path d="M1545 2270 c-63 -17 -85 -27 -275 -117 -63 -31 -126 -60 -140 -65
-41 -16 -108 -11 -151 11 -42 22 -79 27 -79 11 0 -6 11 -42 25 -81 31 -91 44
-162 51 -285 6 -128 17 -166 61 -215 20 -22 33 -42 31 -45 -6 -5 -156 -86
-193 -103 -11 -5 -33 -21 -50 -34 -29 -24 -30 -28 -30 -109 0 -64 5 -93 21
-128 27 -57 32 -72 39 -140 14 -132 51 -228 126 -327 53 -71 74 -81 108 -54
56 46 181 89 306 107 89 12 171 7 288 -17 139 -28 147 -25 147 58 0 51 -14 97
-42 135 -10 13 -3 29 40 95 28 43 72 98 97 123 49 48 54 71 35 142 -14 48 -57
89 -144 134 -88 47 -138 49 -280 9 -237 -64 -389 -128 -489 -205 l-52 -40 -18
23 c-10 12 -32 39 -50 61 -54 65 -66 88 -56 114 10 27 76 59 151 72 29 5 64
11 78 14 83 15 155 36 365 110 72 25 140 46 153 46 33 0 79 26 84 48 3 11 -1
34 -9 53 -37 85 -27 111 89 230 88 90 98 106 98 158 0 78 -55 147 -155 198
-56 29 -111 33 -180 13z m-1 -272 c-30 -85 -85 -187 -115 -212 -52 -44 -222
-107 -240 -89 -9 9 -15 123 -10 209 1 36 24 49 101 58 80 10 165 37 235 76 38
22 47 9 29 -42z m114 -807 c10 -6 8 -21 -12 -73 -34 -93 -52 -124 -94 -167
-37 -38 -89 -56 -217 -76 -22 -3 -47 -7 -55 -10 -15 -4 -27 -7 -110 -22 -87
-16 -108 1 -117 95 -10 97 42 152 145 152 50 0 121 17 317 74 140 40 127 38
143 27z"/>
<path d="M402 1906 c-9 -20 -8 -25 5 -30 11 -5 14 -2 9 10 -4 9 -1 23 5 30 6
8 7 14 2 14 -5 0 -15 -11 -21 -24z"/>
<path d="M368 1828 c-63 -99 -113 -417 -87 -555 5 -26 12 -60 14 -75 3 -15 10
-39 15 -53 5 -14 12 -39 15 -56 9 -47 73 -177 94 -189 21 -11 43 6 24 19 -28
18 -100 190 -93 221 1 3 -4 19 -10 35 -18 45 -22 78 -23 220 -1 131 4 187 23
260 6 22 16 60 22 85 6 25 17 54 24 65 16 22 18 45 5 45 -5 0 -15 -10 -23 -22z"/>
<path d="M2544 1815 c3 -13 1 -27 -4 -30 -6 -4 -8 -11 -4 -16 3 -6 -2 -19 -11
-29 -14 -15 -15 -24 -5 -62 7 -23 19 -56 27 -71 8 -15 12 -34 10 -41 -3 -8 -1
-18 4 -23 7 -7 6 -19 -2 -36 -12 -26 -6 -62 9 -53 4 3 13 -8 19 -24 10 -26 7
-35 -19 -77 -17 -26 -30 -59 -29 -73 1 -14 3 -41 4 -60 2 -19 -1 -45 -6 -57
-7 -16 -5 -29 7 -48 10 -15 16 -27 14 -28 -46 -23 -73 -76 -50 -99 15 -15 32
0 35 31 1 14 8 21 22 21 40 0 65 94 76 287 1 29 0 56 -4 59 -11 11 -8 19 15
44 20 21 23 35 24 130 2 115 -11 153 -63 187 -23 15 -24 18 -8 29 12 9 16 21
11 37 -4 19 -12 24 -42 25 -33 1 -36 0 -30 -23z"/>
<path d="M2491 1382 c1 -4 0 -9 -1 -12 -1 -3 -3 -21 -4 -40 -2 -19 -8 -55 -14
-80 -6 -25 -13 -61 -16 -82 -8 -50 -33 -123 -57 -161 -10 -18 -19 -46 -19 -62
0 -19 -7 -35 -20 -43 -11 -7 -20 -19 -20 -27 0 -8 -3 -15 -7 -15 -12 0 -43
-59 -34 -64 5 -3 17 5 28 17 26 28 57 77 49 77 -3 0 3 15 14 33 29 47 79 147
74 147 -2 0 2 16 10 35 8 19 13 35 10 35 -3 0 0 8 5 18 5 9 12 33 15 52 3 19
8 44 10 55 5 25 9 74 7 96 -1 9 -8 19 -16 23 -8 3 -14 2 -14 -2z"/>
<path d="M2246 744 c-22 -21 -39 -54 -28 -54 14 0 52 40 52 55 0 19 -5 19 -24
-1z"/>
<path d="M620 641 c0 -15 151 -151 161 -145 5 3 9 1 9 -3 0 -5 9 -9 20 -10 38
-3 17 27 -50 72 -25 16 -52 37 -60 45 -19 21 -62 50 -72 50 -5 0 -8 -4 -8 -9z"/>
<path d="M862 458 c7 -19 78 -65 113 -74 34 -8 44 -11 48 -14 1 -1 9 -3 17 -5
8 -2 25 -6 38 -9 12 -3 31 -8 42 -10 11 -3 25 -8 30 -11 33 -21 279 -36 345
-21 11 2 26 5 33 5 8 1 12 7 10 13 -3 9 -40 13 -134 14 -116 1 -213 8 -254 19
-8 2 -30 7 -49 10 -18 3 -50 13 -70 21 -20 9 -45 17 -55 20 -11 2 -22 8 -25
12 -8 12 -67 42 -81 42 -7 0 -10 -6 -8 -12z"/>
<path d="M1598 338 c-60 -13 -65 -37 -8 -33 46 3 100 23 100 36 0 11 -30 10
-92 -3z"/>
</g>
</svg>
